<?xml version="1.0" encoding="UTF-8"?>
<svg id="Layer_1" data-name="Layer 1" xmlns="http://www.w3.org/2000/svg" xmlns:xlink="http://www.w3.org/1999/xlink" viewBox="0 0 700 700">
  <defs>
    <style>
      .cls-1 {
        filter: url(#drop-shadow-3);
      }

      .cls-1, .cls-2, .cls-3 {
        stroke: #b2c8db;
        stroke-linecap: round;
        stroke-linejoin: round;
        stroke-width: 1.94px;
      }

      .cls-1, .cls-2, .cls-3, .cls-4, .cls-5, .cls-6 {
        fill: none;
      }

      .cls-2 {
        filter: url(#drop-shadow-1);
      }

      .cls-3 {
        filter: url(#drop-shadow-2);
      }

      .cls-7 {
        fill: url(#linear-gradient);
      }

      .cls-8 {
        opacity: .03;
      }

      .cls-9, .cls-10 {
        fill: #fff;
      }

      .cls-11 {
        fill: #6d8393;
      }

      .cls-12 {
        fill: #46536b;
      }

      .cls-13 {
        fill: url(#linear-gradient-9);
      }

      .cls-13, .cls-14, .cls-15 {
        opacity: .15;
      }

      .cls-14 {
        fill: url(#linear-gradient-8);
      }

      .cls-16 {
        fill: url(#linear-gradient-6);
      }

      .cls-17 {
        fill: url(#linear-gradient-7);
      }

      .cls-18 {
        fill: url(#linear-gradient-5);
      }

      .cls-15 {
        fill: url(#linear-gradient-10);
      }

      .cls-19 {
        opacity: .75;
      }

      .cls-10 {
        font-family: SFProDisplay-Bold, 'SF Pro Display';
        font-size: 42.78px;
      }

      .cls-4 {
        stroke: url(#linear-gradient-4);
      }

      .cls-4, .cls-5, .cls-6 {
        stroke-dasharray: 0 0 10 14;
        stroke-miterlimit: 10;
        stroke-width: 2px;
      }

      .cls-5 {
        stroke: url(#linear-gradient-2);
      }

      .cls-6 {
        stroke: url(#linear-gradient-3);
      }
    </style>
    <linearGradient id="linear-gradient" x1="283.65" y1="418.6" x2="430.39" y2="235.47" gradientUnits="userSpaceOnUse">
      <stop offset="0" stop-color="#05a1e8"/>
      <stop offset="1" stop-color="#0562e8"/>
    </linearGradient>
    <linearGradient id="linear-gradient-2" x1="143.08" y1="270.45" x2="229.19" y2="270.45" xlink:href="#linear-gradient"/>
    <linearGradient id="linear-gradient-3" x1="230.32" y1="529.48" x2="475.91" y2="529.48" xlink:href="#linear-gradient"/>
    <linearGradient id="linear-gradient-4" x1="467.94" y1="266.87" x2="558.54" y2="266.87" xlink:href="#linear-gradient"/>
    <linearGradient id="linear-gradient-5" x1="986.5" y1="324.9" x2="998.42" y2="301.53" gradientTransform="translate(-461.28 -275.99) rotate(8.33)" xlink:href="#linear-gradient"/>
    <linearGradient id="linear-gradient-6" x1="135.64" y1="363.26" x2="147.56" y2="339.88" xlink:href="#linear-gradient"/>
    <linearGradient id="linear-gradient-7" x1="460.14" y1="523.26" x2="472.05" y2="499.89" xlink:href="#linear-gradient"/>
    <linearGradient id="linear-gradient-8" x1="348.53" y1="661.52" x2="348.53" y2="580.25" gradientUnits="userSpaceOnUse">
      <stop offset=".54" stop-color="#d7dce2"/>
      <stop offset="1" stop-color="#fff" stop-opacity=".15"/>
    </linearGradient>
    <linearGradient id="linear-gradient-9" x1="632.95" y1="181.25" x2="559.02" y2="218.72" xlink:href="#linear-gradient-8"/>
    <linearGradient id="linear-gradient-10" x1="70.23" y1="169.11" x2="142.12" y2="216.7" xlink:href="#linear-gradient-8"/>
    <filter id="drop-shadow-1" filterUnits="userSpaceOnUse">
      <feOffset dx="0" dy="0"/>
      <feGaussianBlur result="blur" stdDeviation="31.99"/>
      <feFlood flood-color="#000" flood-opacity=".25"/>
      <feComposite in2="blur" operator="in"/>
      <feComposite in="SourceGraphic"/>
    </filter>
    <filter id="drop-shadow-2" filterUnits="userSpaceOnUse">
      <feOffset dx="0" dy="0"/>
      <feGaussianBlur result="blur-2" stdDeviation="31.99"/>
      <feFlood flood-color="#000" flood-opacity=".25"/>
      <feComposite in2="blur-2" operator="in"/>
      <feComposite in="SourceGraphic"/>
    </filter>
    <filter id="drop-shadow-3" filterUnits="userSpaceOnUse">
      <feOffset dx="0" dy="0"/>
      <feGaussianBlur result="blur-3" stdDeviation="31.99"/>
      <feFlood flood-color="#000" flood-opacity=".25"/>
      <feComposite in2="blur-3" operator="in"/>
      <feComposite in="SourceGraphic"/>
    </filter>
  </defs>
  <g>
    <path class="cls-9" d="M250.9,356.28h-18.5v-27.92h18.5v4.82h-12.65v6.73h11.94v4.49h-11.94v7.04h12.65v4.84Z"/>
    <path class="cls-9" d="M263.05,349.08l-3.89,7.2h-5.94l6.5-10.33-6.46-10.41h6.37l3.73,7h.12l3.68-7h6.15l-6.48,10.25,6.42,10.49h-6.13l-3.95-7.2h-.12Z"/>
    <path class="cls-9" d="M296.16,345.91c0,6.67-3.21,10.7-8.4,10.7-3.02,0-5.34-1.47-6.44-3.81h-.12v10.25h-5.65v-27.51h5.57v3.62h.12c1.12-2.44,3.42-3.95,6.42-3.95,5.26,0,8.49,4,8.49,10.7Zm-5.79,0c0-3.75-1.78-6.17-4.6-6.17s-4.59,2.46-4.59,6.17,1.82,6.15,4.59,6.15,4.6-2.38,4.6-6.15Z"/>
    <path class="cls-9" d="M299.19,328.36h5.65v27.92h-5.65v-27.92Z"/>
    <path class="cls-9" d="M307.86,350.32c0-3.77,2.9-5.96,8.07-6.27l5.22-.31v-1.37c0-1.93-1.35-3.06-3.48-3.06s-3.44,1.04-3.71,2.57h-5.17c.21-4.02,3.64-6.79,9.13-6.79s8.78,2.75,8.78,6.93v14.26h-5.46v-3.17h-.12c-1.16,2.21-3.73,3.5-6.33,3.5-3.95,0-6.95-2.55-6.95-6.29Zm13.29-1.64v-1.51l-4.37,.27c-2.11,.15-3.31,1.1-3.31,2.57,0,1.55,1.28,2.51,3.19,2.51,2.46,0,4.49-1.61,4.49-3.85Z"/>
    <path class="cls-9" d="M330.3,329.83c0-1.61,1.3-2.9,2.94-2.9s2.94,1.3,2.94,2.9-1.3,2.9-2.94,2.9-2.94-1.32-2.94-2.9Zm.14,5.71h5.65v20.74h-5.65v-20.74Z"/>
    <path class="cls-9" d="M339.84,335.53h5.46v3.7h.12c1.1-2.57,3.29-4.08,6.48-4.08,4.6,0,7.2,2.9,7.2,7.76v13.37h-5.65v-12.19c0-2.71-1.28-4.26-3.81-4.26s-4.14,1.86-4.14,4.55v11.9h-5.65v-20.74Z"/>
    <path class="cls-9" d="M361.88,350.32c0-3.77,2.9-5.96,8.07-6.27l5.22-.31v-1.37c0-1.93-1.35-3.06-3.48-3.06s-3.44,1.04-3.71,2.57h-5.17c.21-4.02,3.64-6.79,9.13-6.79s8.78,2.75,8.78,6.93v14.26h-5.46v-3.17h-.12c-1.16,2.21-3.73,3.5-6.33,3.5-3.95,0-6.95-2.55-6.95-6.29Zm13.29-1.64v-1.51l-4.37,.27c-2.11,.15-3.31,1.1-3.31,2.57,0,1.55,1.28,2.51,3.19,2.51,2.46,0,4.49-1.61,4.49-3.85Z"/>
    <path class="cls-9" d="M390.18,352.72h-.12v3.56h-5.57v-27.92h5.65v10.78h.12c1.14-2.46,3.44-3.93,6.4-3.93,5.22,0,8.44,4,8.44,10.7s-3.19,10.7-8.42,10.7c-3.04,0-5.36-1.47-6.5-3.89Zm-.06-6.81c0,3.75,1.86,6.15,4.6,6.15s4.59-2.36,4.59-6.15-1.78-6.17-4.59-6.17-4.6,2.46-4.6,6.17Z"/>
    <path class="cls-9" d="M408.16,328.36h5.65v27.92h-5.65v-27.92Z"/>
    <path class="cls-9" d="M436.54,349.93c-.62,4.06-4.33,6.79-9.46,6.79-6.38,0-10.22-4.08-10.22-10.72s3.87-10.91,10-10.91,9.85,4.08,9.85,10.39v1.72h-14.3v.35c0,2.96,1.88,4.99,4.76,4.99,2.07,0,3.66-1.03,4.18-2.61h5.19Zm-14.07-6.19h8.8c-.12-2.65-1.84-4.47-4.35-4.47s-4.26,1.88-4.45,4.47Z"/>
    <path class="cls-9" d="M464.09,349.5h-9.81l-2.13,6.77h-6l9.69-27.92h6.87l9.71,27.92h-6.21l-2.13-6.77Zm-8.55-4.37h7.29l-3.58-11.43h-.14l-3.58,11.43Z"/>
    <path class="cls-9" d="M475.27,356.28v-27.92h5.84v27.92h-5.84Z"/>
  </g>
  <g>
    <g>
      <circle class="cls-8" cx="348.53" cy="337.63" r="165.5"/>
      <circle class="cls-8" cx="348.53" cy="337.63" r="159.63"/>
      <circle class="cls-8" cx="348.53" cy="337.63" r="155.13"/>
      <circle class="cls-8" cx="348.53" cy="337.63" r="150.92"/>
      <circle class="cls-8" cx="348.53" cy="337.63" r="147.81"/>
      <circle class="cls-7" cx="348.53" cy="337.63" r="145.16"/>
      <path class="cls-5" d="M145.17,364.86c-.72-7.02-1.09-14.16-1.09-21.37,0-68.44,33.26-129.12,84.51-166.75"/>
      <path class="cls-6" d="M475.31,508.54c-34.62,26.15-77.74,41.67-124.49,41.67s-86.1-14.19-119.92-38.32"/>
      <path class="cls-4" d="M468.51,173.51c53.8,37.33,89.03,99.55,89.03,169.98,0,5.89-.24,11.72-.73,17.48"/>
      <path class="cls-18" d="M465.62,173.09l9.23,20.11c.66,1.44,2.63,1.62,3.54,.33l12.8-18.04c.91-1.29,.09-3.09-1.48-3.23l-22.03-2.06c-1.57-.15-2.72,1.46-2.06,2.9Z"/>
      <path class="cls-16" d="M131.34,348.33l12.04,18.56c.86,1.33,2.83,1.22,3.55-.18l10.05-19.71c.72-1.41-.36-3.07-1.94-2.98l-22.09,1.15c-1.58,.08-2.48,1.84-1.62,3.17Z"/>
      <path class="cls-17" d="M455.84,508.34l12.04,18.56c.86,1.33,2.83,1.22,3.55-.18l10.05-19.71c.72-1.41-.36-3.07-1.94-2.98l-22.09,1.15c-1.58,.08-2.48,1.84-1.62,3.17Z"/>
      <g class="cls-19">
        <path class="cls-14" d="M592.24,551.59c-59.38,67.73-146.56,110.49-243.71,110.49s-184.33-42.76-243.71-110.49H237.91c33.11,17.21,70.73,26.91,110.62,26.91s77.51-9.71,110.62-26.91h133.09Z"/>
        <path class="cls-13" d="M672.55,338.08c0,39.14-6.94,76.66-19.66,111.4l-63.92-110.72v-.68c0-89.27-48.66-167.18-120.88-208.66l-63.85-110.59c152.41,26.42,268.31,159.28,268.31,319.25Z"/>
        <path class="cls-15" d="M292.82,18.84l-63.85,110.59c-72.22,41.48-120.88,119.39-120.88,208.66v.68l-63.92,110.72c-12.72-34.73-19.66-72.25-19.66-111.4C24.52,178.12,140.42,45.26,292.82,18.84Z"/>
      </g>
      <path class="cls-2" d="M115.85,563.11c58.89,60.76,141.38,98.53,232.68,98.53,78.31,0,150.14-27.78,206.15-74.03,1.14-.94,2.86-.14,2.86,1.34v19.53"/>
      <path class="cls-3" d="M667.87,392.77c3.07-17.92,4.67-36.34,4.67-55.14,0-132.67-79.75-246.72-193.92-296.83-1.5-.66-1.37-2.82,.21-3.27l17.08-4.86"/>
      <path class="cls-1" d="M222.94,38.86C106.36,87.93,24.52,203.22,24.52,337.63c0,13.42,.82,26.66,2.4,39.65,.18,1.5-1.47,2.51-2.71,1.65l-12.46-8.55"/>
    </g>
    <g>
      <path class="cls-11" d="M553.11,130.81c4.17,4.12,4.11,9.12-.25,13.55-4.37,4.44-9.41,4.62-13.59,.49l-4.95-4.88,13.84-14.04,4.95,4.88Zm-14.75,9.42l2.57,2.53c2.98,2.94,6.42,2.74,9.69-.58,3.26-3.31,3.41-6.77,.44-9.69l-2.57-2.53-10.13,10.28Z"/>
      <path class="cls-11" d="M550.1,149.94c1.86-1.69,4.3-1.3,6.74,1.11l2.81,2.76,.82-.74c1.19-1.07,1.17-2.52-.04-3.85-1.15-1.27-2.47-1.51-3.6-.84l-1.87-2.07c2.04-1.62,4.94-1.26,7.33,1.37,2.34,2.58,2.47,5.47,.33,7.41l-7.35,6.65-1.9-2.1,1.75-1.59-.05-.05c-1.75,.46-3.72-.21-4.98-1.61-1.89-2.09-1.91-4.72,0-6.46Zm7.19,6.01l.84-.76-2.54-2.48c-1.27-1.22-2.52-1.44-3.43-.62-.93,.84-.84,2.17,.22,3.34,1.38,1.53,3.52,1.77,4.91,.52Z"/>
      <path class="cls-11" d="M573.06,155.3l-2.61,2.18,1.75,2.1-1.79,1.5-1.75-2.09-6.08,5.09c-.95,.8-1.03,1.58-.26,2.5,.19,.23,.52,.58,.67,.7l-1.79,1.5c-.27-.2-.74-.67-1.16-1.17-1.87-2.23-1.75-3.81,.38-5.59l6.33-5.3-1.34-1.6,1.79-1.5,1.34,1.6,2.61-2.18,1.9,2.27Z"/>
      <path class="cls-11" d="M565.38,167.42c1.99-1.54,4.39-.96,6.64,1.63l2.59,2.97,.88-.68c1.26-.98,1.36-2.42,.26-3.85-1.05-1.35-2.35-1.69-3.52-1.11l-1.71-2.21c2.16-1.46,5.03-.88,7.2,1.93,2.13,2.76,2.04,5.65-.25,7.42l-7.84,6.07-1.73-2.24,1.87-1.45-.04-.05c-1.78,.32-3.69-.5-4.84-1.99-1.72-2.23-1.54-4.86,.5-6.44Zm6.71,6.55l.9-.69-2.34-2.67c-1.18-1.32-2.4-1.63-3.38-.88-1,.77-1.01,2.09-.04,3.35,1.26,1.63,3.38,2.04,4.86,.89Z"/>
      <path class="cls-11" d="M595.16,181.77c2.12,3.19,1.39,6.87-1.81,9-3.21,2.13-6.93,1.33-9.07-1.89l-2.34-3.53-5.62,3.73-1.7-2.55,16.44-10.92,4.09,6.16Zm-11.08,2.15l1.94,2.93c1.48,2.22,3.51,2.69,5.58,1.32,2.07-1.38,2.42-3.43,.95-5.64l-1.95-2.94-6.53,4.33Z"/>
      <path class="cls-11" d="M595.69,192.49l1.46,2.41-2.1,1.27,.04,.06c1.69-.46,3.21,.12,4.08,1.58,.22,.36,.35,.71,.43,.92l-2.35,1.42c-.04-.25-.25-.73-.55-1.22-.98-1.63-2.68-1.98-4.42-.92l-7.38,4.45-1.53-2.53,12.32-7.44Z"/>
      <path class="cls-11" d="M593.7,203.06c4.05-2.23,7.84-1.21,9.82,2.38,1.98,3.59,.81,7.34-3.23,9.57-4.06,2.24-7.84,1.23-9.83-2.37-1.98-3.6-.81-7.34,3.25-9.57Zm5.13,9.31c2.79-1.54,3.67-3.74,2.55-5.76-1.11-2.02-3.44-2.46-6.23-.92-2.8,1.54-3.68,3.74-2.57,5.77,1.12,2.04,3.44,2.46,6.24,.91Z"/>
      <path class="cls-11" d="M607.54,224.75c1.25-.94,1.84-2.5,1-4.24-1-2.05-3.37-2.58-6.15-1.23-2.84,1.38-3.83,3.55-2.82,5.61,.8,1.64,2.21,2.27,3.86,1.85l1.24,2.56c-2.89,1.06-5.83-.24-7.34-3.35-1.8-3.7-.44-7.34,3.75-9.38,4.11-2,7.87-.85,9.66,2.83,1.62,3.33,.47,6.4-1.97,7.87l-1.23-2.53Z"/>
      <path class="cls-11" d="M609.76,242.82c-2.58,.65-5.27-.91-6.56-3.94-1.65-3.89-.02-7.36,4.15-9.13,4.15-1.76,7.93-.55,9.52,3.18,1.56,3.67-.06,7.06-4.07,8.77l-.93,.4-3.97-9.35-.16,.07c-2.3,.98-3.24,3.01-2.31,5.19,.66,1.55,1.92,2.36,3.24,2.23l1.1,2.58Zm.05-10.86l2.81,6.62c2-.92,2.88-2.81,2.07-4.71-.81-1.9-2.82-2.62-4.88-1.91Z"/>
      <path class="cls-11" d="M622.25,246.52c1.1,3,.2,5.72-2.17,6.7l-.96-2.6c1.17-.58,1.57-1.84,.99-3.39-.55-1.5-1.65-2.23-2.72-1.84-.83,.31-1.15,1.18-.99,2.71l.31,2.46c.35,2.96-.3,4.36-2.29,5.1-2.46,.91-5-.77-6.22-4.08-1.18-3.19-.3-5.92,2.1-7.05l1.01,2.75c-1.21,.69-1.57,1.96-.94,3.65,.61,1.67,1.68,2.44,2.77,2.04,.86-.32,1.14-1,.99-2.55l-.3-2.63c-.31-2.65,.51-4.35,2.4-5.05,2.41-.89,4.85,.63,6.01,3.79Z"/>
      <path class="cls-11" d="M626.78,259.77c.96,3.05-.07,5.73-2.49,6.59l-.83-2.65c1.2-.52,1.65-1.77,1.16-3.35-.48-1.53-1.54-2.31-2.63-1.97-.85,.27-1.21,1.13-1.11,2.66l.19,2.48c.21,2.98-.51,4.35-2.53,4.99-2.51,.79-4.96-1-6.02-4.37-1.02-3.25-.02-5.93,2.43-6.95l.88,2.79c-1.25,.64-1.66,1.88-1.12,3.61,.53,1.7,1.57,2.52,2.68,2.17,.87-.28,1.19-.95,1.11-2.5l-.17-2.64c-.18-2.67,.72-4.33,2.64-4.93,2.45-.77,4.82,.86,5.83,4.07Z"/>
      <path class="cls-11" d="M628.98,268.1l.79,2.84-13.86,3.83-.79-2.84,13.86-3.83Zm3.58-1.23c.91-.25,1.84,.29,2.09,1.2,.26,.92-.27,1.86-1.17,2.11-.9,.25-1.82-.29-2.08-1.21-.25-.91,.27-1.85,1.16-2.09Z"/>
      <path class="cls-11" d="M630.7,274.2l.65,2.74-2.34,.55,.02,.07c1.78,.38,3.11,1.64,3.62,3.79,.73,3.09-.82,5.32-4.03,6.08l-9.06,2.14-.68-2.89,8.5-2.01c2.1-.5,3.03-1.75,2.56-3.75-.48-2.02-2.22-2.99-4.39-2.47l-8.16,1.93-.68-2.87,14-3.31Z"/>
      <path class="cls-11" d="M618.96,292.17l.52,2.92c-1.11,.63-1.66,2.06-1.37,3.71,.41,2.28,1.94,3.39,3.88,3.04l2.33-.42v-.05c-1.69-.52-2.99-2.01-3.35-4.03-.63-3.55,1.72-6.38,6.14-7.16,4.46-.79,7.67,1.02,8.31,4.66,.36,2.01-.36,3.83-1.85,4.98v.05s2.43-.43,2.43-.43l.5,2.83-13.9,2.48c-3.38,.6-6.05-1.62-6.77-5.65-.59-3.34,.74-6.13,3.13-6.93Zm9.99,8.45c2.91-.52,4.55-2.35,4.15-4.63-.4-2.23-2.53-3.35-5.47-2.83-2.96,.53-4.51,2.3-4.11,4.54,.41,2.27,2.52,3.44,5.44,2.92Z"/>
    </g>
    <g>
      <path class="cls-11" d="M274.63,603.77c5.61,1.71,7.88,6.18,6.06,12.12-1.82,5.96-6.2,8.46-11.82,6.74l-6.66-2.03,5.75-18.87,6.66,2.03Zm-8.71,15.2l3.45,1.05c4,1.22,6.96-.55,8.32-5.01,1.35-4.45-.12-7.58-4.11-8.8l-3.45-1.05-4.21,13.81Z"/>
      <path class="cls-11" d="M281.41,622.04c.58-2.45,2.82-3.51,6.19-2.9l3.89,.68,.26-1.08c.37-1.56-.46-2.74-2.22-3.16-1.66-.4-2.89,.16-3.44,1.35l-2.72-.64c.76-2.49,3.36-3.84,6.82-3.02,3.39,.81,5.14,3.12,4.47,5.93l-2.29,9.65-2.75-.65,.55-2.3-.07-.02c-1.18,1.36-3.19,1.93-5.02,1.49-2.74-.65-4.25-2.81-3.66-5.33Zm9.34,.88l.26-1.11-3.5-.61c-1.74-.29-2.9,.24-3.18,1.44-.29,1.22,.53,2.26,2.08,2.63,2.01,.48,3.91-.53,4.34-2.36Z"/>
      <path class="cls-11" d="M302.82,612.76l-.64,3.34,2.68,.52-.44,2.29-2.69-.52-1.5,7.79c-.24,1.22,.2,1.87,1.38,2.1,.29,.06,.77,.12,.97,.12l-.44,2.29c-.34,.02-.99-.05-1.64-.17-2.86-.55-3.76-1.85-3.24-4.58l1.56-8.11-2.05-.39,.44-2.3,2.05,.39,.64-3.34,2.91,.56Z"/>
      <path class="cls-11" d="M304.84,627.11c.37-2.49,2.5-3.73,5.91-3.42l3.93,.35,.16-1.1c.23-1.58-.69-2.69-2.48-2.95-1.69-.25-2.87,.41-3.31,1.64l-2.76-.41c.54-2.54,3.01-4.11,6.53-3.59,3.45,.51,5.38,2.66,4.96,5.51l-1.45,9.8-2.8-.41,.34-2.34h-.07c-1.06,1.45-3,2.18-4.87,1.91-2.79-.41-4.48-2.43-4.1-4.99Zm9.37,.07l.17-1.12-3.53-.3c-1.76-.14-2.86,.49-3.04,1.71-.18,1.24,.72,2.21,2.29,2.44,2.04,.3,3.85-.87,4.12-2.72Z"/>
      <path class="cls-11" d="M334.63,634.93c-5.63-.35-8.93-4.52-8.54-10.83,.39-6.21,4.16-9.86,9.77-9.51,4.38,.27,7.53,3.07,7.97,7.04l-3.14-.2c-.58-2.49-2.42-4.01-4.98-4.17-3.77-.24-6.2,2.38-6.49,7-.29,4.71,1.86,7.76,5.61,7.99,3.19,.2,5.53-1.71,5.76-4.69l.02-.34-5.09-.32,.15-2.47,8.1,.51-.13,2c-.33,5.33-3.68,8.32-9.01,7.98Z"/>
      <path class="cls-11" d="M345.92,631.06c0-2.52,1.93-4.06,5.34-4.25l3.94-.23v-1.11c0-1.6-1.08-2.56-2.89-2.56-1.71,0-2.78,.82-3.03,2.11h-2.79c.16-2.6,2.38-4.51,5.93-4.51,3.49,0,5.72,1.84,5.72,4.73v9.91s-2.83,0-2.83,0v-2.37h-.07c-.83,1.6-2.65,2.61-4.54,2.61-2.82,0-4.79-1.75-4.79-4.33Zm9.28-1.3v-1.13l-3.54,.22c-1.76,.12-2.76,.9-2.76,2.13s1.04,2.08,2.62,2.08c2.07,0,3.68-1.42,3.68-3.3Z"/>
      <path class="cls-11" d="M364.53,617.08l.15,3.4,2.73-.12,.1,2.34-2.73,.12,.34,7.93c.05,1.24,.62,1.78,1.83,1.73,.3-.01,.78-.06,.97-.11l.1,2.34c-.33,.1-.98,.18-1.63,.21-2.91,.12-4.09-.93-4.21-3.71l-.35-8.25-2.09,.09-.1-2.34,2.09-.09-.14-3.4,2.96-.13Z"/>
      <path class="cls-11" d="M369.36,614.94l2.92-.26,.68,7.72h.07c.64-1.75,2.12-2.86,4.3-3.05,3.15-.28,5.21,1.66,5.5,4.9l.81,9.24-2.96,.26-.76-8.67c-.18-2.11-1.36-3.29-3.43-3.1-2.18,.19-3.38,1.81-3.19,4.07l.73,8.28-2.94,.26-1.72-19.66Z"/>
      <path class="cls-11" d="M398.74,627.16c-.03,2.66-2.23,4.87-5.49,5.33-4.18,.6-7.12-1.87-7.77-6.36-.64-4.47,1.51-7.81,5.53-8.39,3.95-.57,6.82,1.87,7.44,6.19l.14,1-10.06,1.44,.03,.18c.36,2.48,2.08,3.9,4.42,3.57,1.66-.24,2.78-1.25,2.99-2.56l2.78-.4Zm-10.49-2.83l7.12-1.02c-.38-2.17-1.98-3.5-4.02-3.21-2.04,.29-3.26,2.05-3.1,4.23Z"/>
      <path class="cls-11" d="M399.58,616.64l2.77-.53,.46,2.41h.07c.16-1.75,1.23-2.97,2.9-3.29,.42-.08,.79-.08,1.01-.08l.51,2.7c-.25-.05-.77-.02-1.33,.09-1.87,.35-2.79,1.82-2.41,3.82l1.61,8.47-2.9,.55-2.68-14.14Z"/>
      <path class="cls-11" d="M407.61,611.22c-.2-.92,.39-1.82,1.31-2.02,.94-.2,1.84,.37,2.04,1.29,.2,.91-.39,1.81-1.33,2.01-.92,.2-1.83-.37-2.03-1.28Zm1.04,3.65l2.88-.63,3.07,14.05-2.88,.63-3.07-14.05Z"/>
      <path class="cls-11" d="M414.38,613.65l2.73-.71,.61,2.33,.07-.02c.34-1.78,1.57-3.15,3.71-3.71,3.07-.8,5.34,.7,6.17,3.89l2.34,9.01-2.87,.75-2.2-8.45c-.54-2.09-1.82-2.98-3.81-2.47-2.01,.52-2.93,2.29-2.37,4.45l2.11,8.11-2.86,.74-3.63-13.91Z"/>
      <path class="cls-11" d="M433.65,624.55l2.83-.91c.77,1.01,2.27,1.37,3.87,.85,2.2-.71,3.1-2.38,2.49-4.26l-.73-2.25-.05,.02c-.29,1.73-1.59,3.23-3.54,3.86-3.44,1.11-6.55-.84-7.93-5.11-1.39-4.31-.03-7.74,3.49-8.87,1.94-.63,3.84-.16,5.19,1.16l.05-.02-.76-2.34,2.73-.88,4.34,13.45c1.06,3.27-.78,6.22-4.68,7.48-3.23,1.04-6.18,.1-7.29-2.16Zm7.02-11.05c-.91-2.81-2.95-4.19-5.15-3.48-2.16,.7-2.98,2.96-2.06,5.81,.92,2.86,2.89,4.15,5.05,3.46,2.2-.71,3.07-2.96,2.16-5.79Z"/>
    </g>
    <g>
      <path class="cls-11" d="M71.85,261.51c1.45-5.68,5.81-8.15,11.84-6.61,6.04,1.55,8.73,5.8,7.27,11.5l-1.72,6.74-19.11-4.89,1.73-6.74Zm15.57,8.01l.89-3.5c1.04-4.05-.87-6.92-5.38-8.08-4.5-1.15-7.57,.46-8.6,4.5l-.9,3.5,13.98,3.58Z"/>
      <path class="cls-11" d="M89.9,254.48c-2.4-.77-3.28-3.07-2.42-6.39l.98-3.82-1.05-.34c-1.52-.49-2.76,.25-3.32,1.97-.52,1.63-.06,2.89,1.08,3.53l-.85,2.66c-2.42-.95-3.57-3.64-2.49-7.03,1.06-3.32,3.5-4.88,6.25-4l9.44,3.02-.86,2.7-2.25-.72-.02,.07c1.27,1.28,1.68,3.32,1.1,5.12-.86,2.68-3.12,4.02-5.59,3.24Zm1.59-9.24l-1.08-.35-.87,3.44c-.42,1.72,.02,2.91,1.19,3.28,1.2,.38,2.3-.36,2.78-1.87,.63-1.97-.23-3.94-2.02-4.51Z"/>
      <path class="cls-11" d="M83.02,231.89l3.2,1.17,.94-2.57,2.2,.8-.94,2.57,7.45,2.72c1.17,.43,1.88,.11,2.3-1.03,.1-.28,.24-.74,.27-.94l2.2,.8c-.04,.34-.21,.97-.44,1.59-1,2.74-2.43,3.42-5.04,2.47l-7.76-2.83-.72,1.97-2.2-.8,.72-1.97-3.2-1.17,1.02-2.79Z"/>
      <path class="cls-11" d="M97.35,232.52c-2.33-.96-3.02-3.33-1.9-6.56l1.28-3.73-1.02-.42c-1.48-.61-2.78,.03-3.46,1.7-.65,1.58-.3,2.88,.79,3.61l-1.06,2.58c-2.34-1.14-3.27-3.91-1.92-7.2,1.32-3.23,3.88-4.58,6.55-3.49l9.17,3.77-1.08,2.62-2.19-.9-.03,.06c1.16,1.38,1.41,3.45,.69,5.19-1.07,2.61-3.44,3.76-5.83,2.78Zm2.33-9.08l-1.05-.43-1.14,3.36c-.56,1.68-.21,2.9,.92,3.36,1.17,.48,2.32-.17,2.92-1.64,.79-1.91,.08-3.94-1.65-4.65Z"/>
      <path class="cls-11" d="M105.35,210.6c1.85,.68,3.85-.44,5.01-2.76,1.12-2.22,.77-4.4-.81-5.19-1.37-.69-2.67-.13-4.38,1.87l-1.7,2.01c-2.41,2.85-4.68,3.59-7.13,2.36-3.04-1.53-3.8-5.23-1.92-8.99,1.87-3.73,5.24-5.23,8.33-3.79l-1.34,2.67c-1.84-.72-3.63,.2-4.7,2.32-1.07,2.13-.72,4.12,.84,4.91,1.25,.63,2.45,.06,4.15-1.93l1.45-1.7c2.67-3.19,4.88-3.96,7.46-2.67,3.3,1.66,4.05,5.32,1.95,9.5-1.96,3.91-5.3,5.54-8.58,4.11l1.35-2.7Z"/>
      <path class="cls-11" d="M103.16,188.32l2.97,1.66,1.34-2.39,2.04,1.14-1.34,2.39,6.92,3.88c1.08,.61,1.84,.41,2.43-.64,.15-.26,.36-.69,.42-.88l2.04,1.14c-.09,.33-.36,.93-.68,1.5-1.42,2.54-2.95,2.99-5.37,1.63l-7.21-4.04-1.02,1.83-2.04-1.14,1.02-1.83-2.97-1.66,1.45-2.59Z"/>
      <path class="cls-11" d="M114.45,189.76c-3.94-2.42-4.92-6.22-2.78-9.71,2.15-3.49,5.98-4.33,9.92-1.91,3.95,2.42,4.94,6.21,2.79,9.72-2.15,3.5-5.98,4.33-9.93,1.91Zm5.57-9.06c-2.71-1.67-5.06-1.34-6.27,.62-1.21,1.97-.44,4.21,2.28,5.88,2.73,1.67,5.07,1.35,6.28-.62,1.22-1.98,.44-4.21-2.29-5.88Z"/>
      <path class="cls-11" d="M116.98,172.16l1.57-2.33,2.03,1.37,.04-.06c-1.13-1.34-1.24-2.96-.29-4.37,.24-.35,.5-.62,.66-.78l2.28,1.54c-.21,.14-.56,.53-.88,1.01-1.06,1.58-.67,3.26,1.02,4.4l7.14,4.82-1.65,2.45-11.93-8.04Z"/>
      <path class="cls-11" d="M119.16,162.28c-.77-.55-.93-1.61-.39-2.38,.56-.78,1.61-.96,2.38-.42,.76,.54,.92,1.6,.37,2.38-.55,.77-1.61,.95-2.36,.41Zm3.22,2.01l1.72-2.4,11.7,8.36-1.71,2.4-11.7-8.36Z"/>
      <path class="cls-11" d="M126.03,159.12l1.72-2.23,1.91,1.47,.04-.05c-.82-1.62-.69-3.45,.66-5.2,1.94-2.51,4.65-2.72,7.26-.71l7.37,5.68-1.81,2.35-6.92-5.33c-1.71-1.32-3.27-1.24-4.52,.38-1.27,1.65-.92,3.61,.85,4.97l6.63,5.12-1.8,2.34-11.39-8.78Z"/>
      <path class="cls-11" d="M147.39,156.9l1.94-2.25c1.19,.46,2.65-.01,3.74-1.29,1.51-1.75,1.4-3.64-.09-4.93l-1.79-1.54-.04,.04c.66,1.63,.33,3.58-1.01,5.14-2.35,2.74-6.03,2.69-9.43-.23-3.43-2.95-4.05-6.59-1.64-9.39,1.33-1.54,3.19-2.14,5.03-1.72l.04-.04-1.87-1.61,1.87-2.18,10.71,9.21c2.6,2.24,2.57,5.71-.1,8.82-2.21,2.57-5.22,3.3-7.35,1.96Zm.24-13.09c-2.24-1.93-4.7-2.04-6.21-.29-1.48,1.72-1,4.08,1.27,6.03,2.28,1.96,4.63,2.04,6.11,.32,1.51-1.75,1.08-4.12-1.17-6.06Z"/>
    </g>
    <g>
      <path class="cls-12" d="M127.73,421.98c7.76,0,12.33,4.63,12.33,12.84s-4.57,13.03-12.33,13.03h-9.88v-25.87h9.88Zm-4.46,21.39h3.82c4.84,0,7.46-2.94,7.46-8.53s-2.69-8.39-7.46-8.39h-3.82v16.92Z"/>
      <path class="cls-12" d="M142.27,442.33c0-3.5,2.69-5.52,7.48-5.81l4.84-.29v-1.27c0-1.79-1.25-2.83-3.23-2.83s-3.19,.97-3.44,2.38h-4.79c.2-3.73,3.37-6.29,8.46-6.29s8.14,2.55,8.14,6.42v13.21h-5.06v-2.94h-.11c-1.08,2.04-3.46,3.25-5.86,3.25-3.66,0-6.44-2.37-6.44-5.83Zm12.32-1.52v-1.4l-4.05,.25c-1.95,.14-3.07,1.02-3.07,2.38,0,1.43,1.18,2.33,2.96,2.33,2.28,0,4.16-1.49,4.16-3.57Z"/>
      <path class="cls-12" d="M169.74,424.2v4.43h3.55v3.94h-3.55v9.2c0,1.47,.72,2.17,2.26,2.17,.47,0,.95-.04,1.27-.09v3.85c-.54,.13-1.43,.21-2.49,.21-4.52,0-6.28-1.51-6.28-5.25v-10.09h-2.71v-3.94h2.71v-4.43h5.24Z"/>
      <path class="cls-12" d="M175.25,442.33c0-3.5,2.69-5.52,7.48-5.81l4.84-.29v-1.27c0-1.79-1.25-2.83-3.23-2.83s-3.19,.97-3.44,2.38h-4.79c.2-3.73,3.37-6.29,8.46-6.29s8.14,2.55,8.14,6.42v13.21h-5.06v-2.94h-.11c-1.08,2.04-3.46,3.25-5.86,3.25-3.66,0-6.44-2.37-6.44-5.83Zm12.32-1.52v-1.4l-4.05,.25c-1.95,.14-3.07,1.02-3.07,2.38,0,1.43,1.18,2.33,2.96,2.33,2.28,0,4.16-1.49,4.16-3.57Z"/>
      <path class="cls-12" d="M137.91,486.85h-16.73v-25.87h5.42v21.39h11.31v4.48Z"/>
      <path class="cls-12" d="M139.93,481.33c0-3.5,2.69-5.52,7.48-5.81l4.84-.29v-1.27c0-1.79-1.25-2.83-3.23-2.83s-3.19,.97-3.44,2.38h-4.79c.2-3.73,3.37-6.29,8.46-6.29s8.14,2.55,8.14,6.42v13.21h-5.06v-2.94h-.11c-1.08,2.04-3.46,3.25-5.86,3.25-3.66,0-6.44-2.37-6.44-5.83Zm12.32-1.52v-1.4l-4.05,.25c-1.95,.14-3.07,1.02-3.07,2.38,0,1.43,1.18,2.33,2.96,2.33,2.28,0,4.16-1.49,4.16-3.57Z"/>
      <path class="cls-12" d="M172.73,467.63h5.93l-7.33,8.25,7.69,10.97h-6.02l-5.5-7.82-1.36,1.47v6.35h-5.24v-25.87h5.24v14.36h.07l6.53-7.71Z"/>
      <path class="cls-12" d="M197.17,480.97c-.57,3.77-4.02,6.29-8.77,6.29-5.92,0-9.47-3.78-9.47-9.93s3.59-10.11,9.27-10.11,9.13,3.78,9.13,9.63v1.6h-13.25v.32c0,2.74,1.74,4.63,4.41,4.63,1.92,0,3.39-.95,3.87-2.42h4.81Zm-13.04-5.74h8.16c-.11-2.46-1.7-4.14-4.03-4.14s-3.94,1.74-4.12,4.14Z"/>
    </g>
    <g>
      <path class="cls-12" d="M318.53,89.23c7.76,0,12.33,4.62,12.33,12.84s-4.57,13.03-12.33,13.03h-9.88v-25.87h9.88Zm-4.46,21.39h3.82c4.84,0,7.46-2.94,7.46-8.53s-2.69-8.39-7.46-8.39h-3.82v16.92Z"/>
      <path class="cls-12" d="M333.07,109.57c0-3.5,2.69-5.52,7.48-5.81l4.84-.29v-1.27c0-1.79-1.25-2.83-3.23-2.83s-3.19,.97-3.44,2.38h-4.79c.2-3.73,3.37-6.29,8.46-6.29s8.14,2.55,8.14,6.42v13.21h-5.06v-2.94h-.11c-1.08,2.04-3.46,3.24-5.86,3.24-3.66,0-6.44-2.37-6.44-5.83Zm12.32-1.52v-1.4l-4.05,.25c-1.95,.14-3.07,1.02-3.07,2.38,0,1.43,1.18,2.33,2.96,2.33,2.28,0,4.16-1.49,4.16-3.57Z"/>
      <path class="cls-12" d="M360.54,91.45v4.43h3.55v3.94h-3.55v9.2c0,1.47,.72,2.17,2.26,2.17,.47,0,.95-.04,1.27-.09v3.86c-.54,.12-1.43,.21-2.49,.21-4.52,0-6.28-1.51-6.28-5.25v-10.09h-2.71v-3.94h2.71v-4.43h5.24Z"/>
      <path class="cls-12" d="M366.04,109.57c0-3.5,2.69-5.52,7.48-5.81l4.84-.29v-1.27c0-1.79-1.25-2.83-3.23-2.83s-3.19,.97-3.44,2.38h-4.79c.2-3.73,3.37-6.29,8.46-6.29s8.14,2.55,8.14,6.42v13.21h-5.06v-2.94h-.11c-1.08,2.04-3.46,3.24-5.86,3.24-3.66,0-6.44-2.37-6.44-5.83Zm12.32-1.52v-1.4l-4.05,.25c-1.95,.14-3.07,1.02-3.07,2.38,0,1.43,1.18,2.33,2.96,2.33,2.28,0,4.16-1.49,4.16-3.57Z"/>
      <path class="cls-12" d="M267.59,154.1h-5.11l-6.85-25.87h5.61l4.07,18.74h.14l4.84-18.74h4.57l4.84,18.74h.14l4.09-18.74h5.61l-6.87,25.87h-5.11l-4.91-17.68h-.16l-4.91,17.68Z"/>
      <path class="cls-12" d="M288.86,148.57c0-3.5,2.69-5.52,7.48-5.81l4.84-.29v-1.27c0-1.79-1.25-2.83-3.23-2.83s-3.19,.97-3.44,2.38h-4.79c.2-3.73,3.37-6.29,8.46-6.29s8.14,2.55,8.14,6.42v13.21h-5.06v-2.94h-.11c-1.08,2.04-3.46,3.24-5.86,3.24-3.66,0-6.44-2.37-6.44-5.83Zm12.32-1.52v-1.4l-4.05,.25c-1.95,.14-3.07,1.02-3.07,2.38,0,1.43,1.18,2.33,2.96,2.33,2.28,0,4.16-1.49,4.16-3.57Z"/>
      <path class="cls-12" d="M309.7,134.88h5.06v3.46h.11c.68-2.44,2.31-3.76,4.57-3.76,.61,0,1.13,.09,1.49,.2v4.61c-.43-.18-1.15-.3-1.9-.3-2.58,0-4.09,1.58-4.09,4.28v10.74h-5.24v-19.22Z"/>
      <path class="cls-12" d="M339.96,148.22c-.57,3.77-4.02,6.29-8.77,6.29-5.92,0-9.47-3.78-9.47-9.93s3.59-10.11,9.27-10.11,9.13,3.78,9.13,9.63v1.6h-13.25v.32c0,2.74,1.74,4.63,4.41,4.63,1.92,0,3.39-.95,3.87-2.42h4.81Zm-13.04-5.74h8.16c-.11-2.46-1.7-4.14-4.03-4.14s-3.94,1.74-4.12,4.14Z"/>
      <path class="cls-12" d="M342.94,128.23h5.15v10.08h.11c1.02-2.42,3.12-3.78,6.04-3.78,4.27,0,6.71,2.76,6.71,7.21v12.37h-5.23v-11.26c0-2.47-1.22-3.98-3.6-3.98s-3.93,1.74-3.93,4.27v10.97h-5.24v-25.87Z"/>
      <path class="cls-12" d="M363.58,144.47c0-6.22,3.77-10,9.52-10s9.52,3.76,9.52,10-3.71,10.04-9.52,10.04-9.52-3.73-9.52-10.04Zm13.72,.02c0-3.82-1.65-6.02-4.2-6.02s-4.21,2.21-4.21,6.02,1.63,6.02,4.21,6.02,4.2-2.17,4.2-6.02Z"/>
      <path class="cls-12" d="M403.06,154.1h-5.06v-3.46h-.11c-.95,2.42-2.85,3.82-5.75,3.82-4.16,0-6.92-2.71-6.92-7.19v-12.39h5.24v11.3c0,2.56,1.27,3.93,3.59,3.93s3.78-1.67,3.78-4.21v-11.01h5.24v19.22Z"/>
      <path class="cls-12" d="M414.25,134.46c4.82,0,7.96,2.44,8.03,6.17h-4.82c-.11-1.54-1.34-2.49-3.28-2.49-1.81,0-2.99,.83-2.99,2.06,0,.95,.82,1.6,2.51,1.99l3.68,.79c3.85,.86,5.41,2.38,5.41,5.25,0,3.78-3.48,6.28-8.55,6.28s-8.28-2.47-8.57-6.22h5.11c.25,1.61,1.52,2.55,3.6,2.55s3.19-.79,3.19-2.04c0-.97-.65-1.51-2.37-1.92l-3.55-.79c-3.64-.82-5.5-2.73-5.5-5.56,0-3.66,3.17-6.06,8.1-6.06Z"/>
      <path class="cls-12" d="M442.92,148.22c-.57,3.77-4.02,6.29-8.77,6.29-5.92,0-9.47-3.78-9.47-9.93s3.59-10.11,9.27-10.11,9.13,3.78,9.13,9.63v1.6h-13.25v.32c0,2.74,1.74,4.63,4.41,4.63,1.92,0,3.39-.95,3.87-2.42h4.81Zm-13.04-5.74h8.16c-.11-2.46-1.7-4.14-4.03-4.14s-3.94,1.74-4.12,4.14Z"/>
    </g>
    <text class="cls-10" transform="translate(344.3 356.67)"><tspan x="0" y="0"> </tspan></text>
    <g>
      <path class="cls-12" d="M544.12,421.98c7.76,0,12.33,4.63,12.33,12.84s-4.57,13.03-12.33,13.03h-9.88v-25.87h9.88Zm-4.46,21.39h3.82c4.84,0,7.46-2.94,7.46-8.53s-2.69-8.39-7.46-8.39h-3.82v16.92Z"/>
      <path class="cls-12" d="M558.66,442.33c0-3.5,2.69-5.52,7.48-5.81l4.84-.29v-1.27c0-1.79-1.25-2.83-3.23-2.83s-3.19,.97-3.44,2.38h-4.79c.2-3.73,3.37-6.29,8.46-6.29s8.14,2.55,8.14,6.42v13.21h-5.06v-2.94h-.11c-1.08,2.04-3.46,3.25-5.86,3.25-3.66,0-6.44-2.37-6.44-5.83Zm12.32-1.52v-1.4l-4.05,.25c-1.95,.14-3.07,1.02-3.07,2.38,0,1.43,1.18,2.33,2.96,2.33,2.28,0,4.16-1.49,4.16-3.57Z"/>
      <path class="cls-12" d="M586.13,424.2v4.43h3.55v3.94h-3.55v9.2c0,1.47,.72,2.17,2.26,2.17,.47,0,.95-.04,1.27-.09v3.85c-.54,.13-1.43,.21-2.49,.21-4.52,0-6.28-1.51-6.28-5.25v-10.09h-2.71v-3.94h2.71v-4.43h5.24Z"/>
      <path class="cls-12" d="M591.64,442.33c0-3.5,2.69-5.52,7.48-5.81l4.84-.29v-1.27c0-1.79-1.25-2.83-3.23-2.83s-3.19,.97-3.44,2.38h-4.79c.2-3.73,3.37-6.29,8.46-6.29s8.14,2.55,8.14,6.42v13.21h-5.06v-2.94h-.11c-1.08,2.04-3.46,3.25-5.86,3.25-3.66,0-6.44-2.37-6.44-5.83Zm12.32-1.52v-1.4l-4.05,.25c-1.95,.14-3.07,1.02-3.07,2.38,0,1.43,1.18,2.33,2.96,2.33,2.28,0,4.16-1.49,4.16-3.57Z"/>
      <path class="cls-12" d="M538.38,486.85v-17.46h-.14l-7.03,17.21h-3.41l-7.03-17.21h-.14v17.46h-4.82v-25.87h6.28l7.35,18.34h.14l7.35-18.34h6.28v25.87h-4.82Z"/>
      <path class="cls-12" d="M546.36,477.22c0-6.22,3.77-10,9.52-10s9.52,3.77,9.52,10-3.71,10.04-9.52,10.04-9.52-3.73-9.52-10.04Zm13.72,.02c0-3.82-1.65-6.02-4.2-6.02s-4.21,2.21-4.21,6.02,1.63,6.02,4.21,6.02,4.2-2.17,4.2-6.02Z"/>
      <path class="cls-12" d="M567.39,477.21c0-6.1,3.05-9.88,7.87-9.88,2.78,0,4.93,1.47,5.86,3.6h.11v-9.95h5.24v25.87h-5.16v-3.3h-.09c-.93,2.12-3.16,3.6-5.99,3.6-4.8,0-7.83-3.8-7.83-9.95Zm5.36,.04c0,3.53,1.61,5.7,4.25,5.7s4.27-2.19,4.27-5.7-1.67-5.72-4.27-5.72-4.25,2.21-4.25,5.72Z"/>
      <path class="cls-12" d="M607.5,480.97c-.57,3.77-4.02,6.29-8.77,6.29-5.92,0-9.47-3.78-9.47-9.93s3.59-10.11,9.27-10.11,9.13,3.78,9.13,9.63v1.6h-13.25v.32c0,2.74,1.74,4.63,4.41,4.63,1.92,0,3.39-.95,3.87-2.42h4.81Zm-13.04-5.74h8.16c-.11-2.46-1.7-4.14-4.03-4.14s-3.94,1.74-4.12,4.14Z"/>
      <path class="cls-12" d="M610.48,460.98h5.24v25.87h-5.24v-25.87Z"/>
      <path class="cls-12" d="M627.03,467.22c4.82,0,7.96,2.44,8.03,6.17h-4.82c-.11-1.54-1.34-2.49-3.28-2.49-1.81,0-2.99,.83-2.99,2.06,0,.95,.82,1.6,2.51,1.99l3.68,.79c3.85,.86,5.41,2.38,5.41,5.25,0,3.78-3.48,6.28-8.55,6.28s-8.28-2.47-8.57-6.22h5.11c.25,1.61,1.52,2.55,3.6,2.55s3.19-.79,3.19-2.04c0-.97-.65-1.51-2.37-1.92l-3.55-.79c-3.64-.82-5.5-2.72-5.5-5.56,0-3.66,3.17-6.06,8.1-6.06Z"/>
    </g>
  </g>
  <g>
    <path class="cls-9" d="M306.56,282.67c10.2,0,16.21,6.08,16.21,16.87s-6.01,17.13-16.21,17.13h-12.98v-34h12.98Zm-5.87,28.11h5.02c6.36,0,9.8-3.86,9.8-11.21s-3.53-11.03-9.8-11.03h-5.02v22.24Z"/>
    <path class="cls-9" d="M325.67,309.41c0-4.59,3.53-7.26,9.82-7.63l6.36-.38v-1.67c0-2.36-1.65-3.72-4.24-3.72s-4.19,1.27-4.52,3.13h-6.29c.26-4.9,4.43-8.27,11.12-8.27s10.7,3.35,10.7,8.43v17.36h-6.64v-3.86h-.14c-1.41,2.69-4.55,4.26-7.7,4.26-4.81,0-8.46-3.11-8.46-7.66Zm16.19-2v-1.84l-5.33,.33c-2.57,.19-4.03,1.34-4.03,3.13,0,1.88,1.55,3.06,3.89,3.06,2.99,0,5.47-1.96,5.47-4.69Z"/>
    <path class="cls-9" d="M361.76,285.59v5.82h4.67v5.18h-4.67v12.09c0,1.93,.94,2.85,2.97,2.85,.61,0,1.25-.05,1.67-.12v5.07c-.71,.17-1.88,.28-3.28,.28-5.94,0-8.25-1.98-8.25-6.9v-13.26h-3.56v-5.18h3.56v-5.82h6.88Z"/>
    <path class="cls-9" d="M368.99,309.41c0-4.59,3.53-7.26,9.82-7.63l6.36-.38v-1.67c0-2.36-1.65-3.72-4.24-3.72s-4.19,1.27-4.52,3.13h-6.29c.26-4.9,4.43-8.27,11.12-8.27s10.7,3.35,10.7,8.43v17.36h-6.64v-3.86h-.14c-1.41,2.69-4.55,4.26-7.7,4.26-4.81,0-8.46-3.11-8.46-7.66Zm16.19-2v-1.84l-5.33,.33c-2.57,.19-4.03,1.34-4.03,3.13,0,1.88,1.55,3.06,3.89,3.06,2.99,0,5.47-1.96,5.47-4.69Z"/>
    <path class="cls-9" d="M247.06,366.13h-22.52v-34h22.52v5.87h-15.41v8.2h14.54v5.47h-14.54v8.58h15.41v5.89Z"/>
    <path class="cls-9" d="M251.61,340.87h6.64v4.5h.14c1.34-3.13,4-4.97,7.89-4.97,5.61,0,8.76,3.53,8.76,9.45v16.28h-6.88v-14.84c0-3.3-1.55-5.18-4.64-5.18s-5.04,2.26-5.04,5.54v14.49h-6.88v-25.26Z"/>
    <path class="cls-9" d="M279.27,367.92h6.74c.54,1.74,2.52,2.95,5.14,2.95,3.56,0,5.54-1.98,5.54-4.9v-4.43h-.14c-1.18,2.69-4.15,4.52-7.8,4.52-6.17,0-10.25-4.76-10.25-12.65s3.96-12.93,10.37-12.93c3.63,0,6.48,1.91,7.8,4.81h.12v-4.41h6.79v24.9c0,6.03-5.04,9.87-12.6,9.87-6.64,0-11.14-3.23-11.69-7.73Zm17.43-14.46c0-4.55-2.19-7.47-5.63-7.47s-5.54,2.87-5.54,7.47,2.12,7.3,5.54,7.3,5.63-2.73,5.63-7.3Z"/>
    <path class="cls-9" d="M307.92,334.53c0-2,1.6-3.56,3.68-3.56s3.67,1.56,3.67,3.56-1.6,3.56-3.67,3.56-3.68-1.58-3.68-3.56Zm.24,6.34h6.88v25.26h-6.88v-25.26Z"/>
    <path class="cls-9" d="M319.6,340.87h6.64v4.5h.14c1.34-3.13,4-4.97,7.89-4.97,5.61,0,8.76,3.53,8.76,9.45v16.28h-6.88v-14.84c0-3.3-1.55-5.18-4.64-5.18s-5.04,2.26-5.04,5.54v14.49h-6.88v-25.26Z"/>
    <path class="cls-9" d="M370.44,358.4c-.75,4.95-5.28,8.27-11.52,8.27-7.77,0-12.44-4.97-12.44-13.05s4.71-13.29,12.18-13.29,11.99,4.97,11.99,12.65v2.1h-17.41v.42c0,3.6,2.29,6.08,5.8,6.08,2.52,0,4.45-1.25,5.09-3.18h6.31Zm-17.13-7.54h10.72c-.14-3.23-2.24-5.44-5.3-5.44s-5.18,2.29-5.42,5.44Z"/>
    <path class="cls-9" d="M397.23,358.4c-.75,4.95-5.28,8.27-11.52,8.27-7.77,0-12.44-4.97-12.44-13.05s4.71-13.29,12.18-13.29,11.99,4.97,11.99,12.65v2.1h-17.41v.42c0,3.6,2.29,6.08,5.8,6.08,2.52,0,4.45-1.25,5.09-3.18h6.31Zm-17.13-7.54h10.72c-.14-3.23-2.24-5.44-5.3-5.44s-5.18,2.29-5.42,5.44Z"/>
    <path class="cls-9" d="M400.98,340.87h6.64v4.55h.14c.9-3.2,3.04-4.95,6.01-4.95,.8,0,1.48,.12,1.96,.26v6.05c-.57-.24-1.51-.4-2.5-.4-3.39,0-5.37,2.07-5.37,5.63v14.11h-6.88v-25.26Z"/>
    <path class="cls-9" d="M418.53,340.87h6.64v4.5h.14c1.34-3.13,4-4.97,7.89-4.97,5.61,0,8.76,3.53,8.76,9.45v16.28h-6.88v-14.84c0-3.3-1.55-5.18-4.64-5.18s-5.04,2.26-5.04,5.54v14.49h-6.88v-25.26Z"/>
    <path class="cls-9" d="M446.19,367.92h6.74c.54,1.74,2.52,2.95,5.14,2.95,3.56,0,5.54-1.98,5.54-4.9v-4.43h-.14c-1.18,2.69-4.15,4.52-7.8,4.52-6.17,0-10.25-4.76-10.25-12.65s3.96-12.93,10.37-12.93c3.63,0,6.48,1.91,7.8,4.81h.12v-4.41h6.79v24.9c0,6.03-5.04,9.87-12.6,9.87-6.64,0-11.14-3.23-11.69-7.73Zm17.43-14.46c0-4.55-2.19-7.47-5.63-7.47s-5.54,2.87-5.54,7.47,2.12,7.3,5.54,7.3,5.63-2.73,5.63-7.3Z"/>
  </g>
</svg>